<svg width="331" height="258" viewBox="0 0 331 258" fill="none" xmlns="http://www.w3.org/2000/svg">
<g opacity="0.4">
<rect x="39.3686" y="138.715" width="229.395" height="31.1595" rx="15.5798" transform="rotate(-26.1906 39.3686 138.715)" fill="#D9D9D9"/>
<rect opacity="0.8" x="37.8532" y="173.541" width="228.784" height="31.1595" rx="15.5798" transform="rotate(-26.1906 37.8532 173.541)" fill="#D9D9D9"/>
<rect x="88.102" y="182.954" width="208.955" height="31.1595" rx="15.5798" transform="rotate(-26.1906 88.102 182.954)" fill="#D9D9D9"/>
<rect opacity="0.8" x="129.46" y="197.011" width="208.955" height="31.1595" rx="15.5798" transform="rotate(-26.1906 129.46 197.011)" fill="#D9D9D9"/>
<rect x="131.732" y="229.927" width="187.477" height="31.1595" rx="15.5798" transform="rotate(-26.1906 131.732 229.927)" fill="#D9D9D9"/>
<rect opacity="0.8" y="123.573" width="208.955" height="31.1595" rx="15.5798" transform="rotate(-26.1906 0 123.573)" fill="#D9D9D9"/>
<rect x="6.81392" y="85.9601" width="194.063" height="31.1595" rx="15.5798" transform="rotate(-26.1906 6.81392 85.9601)" fill="#D9D9D9"/>
</g>
<path fill-rule="evenodd" clip-rule="evenodd" d="M201.919 46H121.459V175.443L121.13 197.504L129.8 182.837L139.704 197.432L149.815 182.532L159.927 197.432L170.039 182.532L180.151 197.432L190.262 182.532L200.373 197.432L210.485 182.532L220.596 197.432L230.875 182.286H230.998L240.237 198.018V168.365L240.16 168.389V88.9175L219.937 73.0374L203.979 49.4334L201.919 46Z" fill="#282828"/>
<path d="M240.029 89.2608L201.575 89.2608V46L240.029 89.2608Z" fill="#848484"/>
<circle cx="121.507" cy="184.629" r="21.9567" fill="#E5E5E5"/>
<path fill-rule="evenodd" clip-rule="evenodd" d="M141.651 200.64L152.25 211.257C152.765 211.795 153.053 212.514 153.053 213.262C153.053 214.01 152.765 214.729 152.25 215.267C151.984 215.538 151.668 215.752 151.32 215.899C150.972 216.045 150.599 216.121 150.221 216.121C149.844 216.121 149.471 216.045 149.123 215.899C148.775 215.752 148.459 215.538 148.193 215.267L137.679 204.65C132.549 208.805 126.038 210.817 119.484 210.273C112.93 209.728 106.832 206.669 102.443 201.723C98.0546 196.778 95.7091 190.322 95.889 183.684C96.0688 177.045 98.7605 170.729 103.41 166.033C108.06 161.337 114.315 158.619 120.889 158.437C127.462 158.256 133.855 160.624 138.752 165.056C143.649 169.488 146.679 175.647 147.218 182.265C147.757 188.884 145.765 195.459 141.651 200.64ZM110.541 201.246C113.83 203.466 117.696 204.65 121.652 204.65C126.956 204.65 132.043 202.522 135.793 198.735C139.544 194.947 141.651 189.81 141.651 184.454C141.651 180.46 140.478 176.555 138.28 173.234C136.083 169.913 132.959 167.324 129.305 165.795C125.651 164.267 121.63 163.867 117.75 164.646C113.871 165.425 110.307 167.349 107.51 170.173C104.714 172.998 102.809 176.596 102.037 180.514C101.266 184.432 101.662 188.492 103.175 192.183C104.689 195.873 107.252 199.027 110.541 201.246Z" fill="#282828"/>
<path fill-rule="evenodd" clip-rule="evenodd" d="M152.25 215.267C151.984 215.538 151.668 215.752 151.32 215.899C150.972 216.045 150.599 216.121 150.221 216.121C149.844 216.121 149.471 216.045 149.123 215.899C148.774 215.752 148.458 215.538 148.193 215.267L137.679 204.65C132.549 208.805 126.038 210.817 119.484 210.273C112.93 209.728 106.832 206.669 102.443 201.723C98.0545 196.778 95.709 190.322 95.8889 183.684C96.0687 177.045 98.7604 170.729 103.41 166.033C108.06 161.337 114.315 158.619 120.889 158.437C127.462 158.256 133.855 160.624 138.752 165.056C143.649 169.488 146.679 175.647 147.218 182.265C147.757 188.884 145.765 195.459 141.65 200.64L152.25 211.257C152.765 211.795 153.053 212.514 153.053 213.262C153.053 214.01 152.765 214.729 152.25 215.267ZM144.72 218.694C145.435 219.42 146.288 220 147.23 220.396C148.177 220.794 149.193 221 150.221 221C151.249 221 152.266 220.794 153.212 220.396C154.158 219.998 155.014 219.416 155.731 218.686L155.753 218.664L155.775 218.641C157.163 217.19 157.932 215.261 157.932 213.262C157.932 211.263 157.163 209.334 155.775 207.883L152.25 211.257L155.703 207.81L147.953 200.046C151.14 194.59 152.601 188.244 152.081 181.869C151.442 174.021 147.849 166.708 142.026 161.439C136.202 156.168 128.59 153.343 120.754 153.56C112.918 153.776 105.472 157.017 99.9433 162.6C94.416 168.181 91.2247 175.68 91.0114 183.551C90.7981 191.422 93.5785 199.085 98.7937 204.962C104.01 210.84 111.268 214.486 119.08 215.135C125.402 215.66 131.687 214.189 137.089 210.989L144.712 218.686C144.714 218.689 144.717 218.692 144.72 218.694ZM113.27 197.202C115.755 198.879 118.672 199.771 121.652 199.771C125.646 199.771 129.487 198.169 132.326 195.302C135.167 192.433 136.771 188.532 136.771 184.454C136.771 181.414 135.878 178.446 134.211 175.926C132.544 173.407 130.179 171.45 127.422 170.297C124.665 169.144 121.634 168.843 118.711 169.43C115.787 170.017 113.095 171.468 110.977 173.607C108.859 175.746 107.411 178.477 106.824 181.457C106.237 184.438 106.539 187.526 107.689 190.331C108.84 193.135 110.784 195.524 113.27 197.202ZM110.541 201.246C113.83 203.466 117.696 204.65 121.652 204.65C126.956 204.65 132.042 202.522 135.793 198.735C139.543 194.947 141.65 189.81 141.65 184.454C141.65 180.46 140.478 176.555 138.28 173.234C136.083 169.913 132.959 167.324 129.305 165.796C125.651 164.267 121.629 163.867 117.75 164.646C113.871 165.426 110.307 167.349 107.51 170.173C104.714 172.998 102.809 176.596 102.037 180.514C101.265 184.432 101.662 188.492 103.175 192.183C104.689 195.873 107.252 199.027 110.541 201.246Z" fill="#F3F3F3"/>
<path d="M124.257 194.075C124.2 193.91 124.121 193.752 124.023 193.607C123.927 193.471 123.823 193.341 123.711 193.218L123.321 192.906L122.854 192.672C122.699 192.593 122.532 192.54 122.36 192.516C121.943 192.433 121.511 192.453 121.103 192.575C120.696 192.698 120.324 192.918 120.022 193.218L119.71 193.607C119.612 193.752 119.533 193.91 119.476 194.075C119.401 194.222 119.349 194.38 119.32 194.543C119.308 194.716 119.308 194.889 119.32 195.062C119.325 195.402 119.395 195.737 119.528 196.05C119.66 196.364 119.844 196.654 120.074 196.907C120.436 197.272 120.899 197.521 121.403 197.623C121.907 197.724 122.43 197.674 122.906 197.478C123.216 197.328 123.505 197.135 123.763 196.907C123.992 196.648 124.184 196.36 124.335 196.05C124.441 195.732 124.485 195.397 124.464 195.062C124.477 194.889 124.477 194.716 124.464 194.543C124.42 194.377 124.35 194.219 124.257 194.075ZM121.866 171.681C121.177 171.681 120.517 171.955 120.029 172.442C119.542 172.929 119.269 173.59 119.269 174.279V187.268C119.269 187.958 119.542 188.618 120.029 189.106C120.517 189.593 121.177 189.866 121.866 189.866C122.555 189.866 123.216 189.593 123.703 189.106C124.191 188.618 124.464 187.958 124.464 187.268V174.279C124.464 173.59 124.191 172.929 123.703 172.442C123.216 171.955 122.555 171.681 121.866 171.681Z" fill="#FC2779"/>
<path d="M163.059 128.652V134.898H136.01L135.571 129.994L150.954 105.423H157.329L150.412 116.882L143.417 128.652H163.059ZM159.032 105.423V143.002H150.98V105.423H159.032Z" fill="white"/>
<path d="M192.714 120.857V127.542C192.714 130.295 192.405 132.678 191.785 134.691C191.183 136.704 190.306 138.365 189.153 139.672C188.017 140.98 186.658 141.952 185.075 142.589C183.509 143.208 181.771 143.518 179.861 143.518C178.33 143.518 176.902 143.32 175.577 142.924C174.252 142.529 173.056 141.918 171.989 141.092C170.939 140.249 170.036 139.199 169.279 137.943C168.522 136.687 167.937 135.19 167.524 133.452C167.128 131.714 166.93 129.744 166.93 127.542V120.857C166.93 118.069 167.231 115.678 167.834 113.682C168.453 111.686 169.339 110.034 170.492 108.726C171.645 107.419 173.004 106.455 174.57 105.836C176.153 105.216 177.9 104.906 179.809 104.906C181.341 104.906 182.76 105.104 184.068 105.5C185.393 105.896 186.589 106.507 187.656 107.333C188.723 108.158 189.626 109.199 190.366 110.456C191.123 111.712 191.699 113.209 192.095 114.946C192.508 116.667 192.714 118.637 192.714 120.857ZM184.662 128.548V119.799C184.662 118.508 184.584 117.39 184.429 116.443C184.292 115.48 184.085 114.663 183.81 113.992C183.552 113.32 183.225 112.778 182.829 112.365C182.434 111.953 181.978 111.651 181.461 111.462C180.962 111.256 180.412 111.152 179.809 111.152C179.052 111.152 178.373 111.307 177.771 111.617C177.168 111.927 176.661 112.417 176.248 113.088C175.835 113.742 175.516 114.628 175.293 115.747C175.086 116.848 174.983 118.199 174.983 119.799V128.548C174.983 129.839 175.052 130.966 175.19 131.929C175.344 132.893 175.551 133.719 175.809 134.407C176.084 135.078 176.42 135.629 176.816 136.059C177.211 136.472 177.667 136.773 178.183 136.962C178.7 137.152 179.259 137.246 179.861 137.246C180.618 137.246 181.289 137.1 181.874 136.808C182.459 136.498 182.958 136.007 183.371 135.336C183.801 134.648 184.12 133.745 184.326 132.626C184.55 131.508 184.662 130.149 184.662 128.548Z" fill="white"/>
<path d="M224.074 128.652V134.898H197.025L196.586 129.994L211.969 105.423H218.344L211.427 116.882L204.432 128.652H224.074ZM220.047 105.423V143.002H211.995V105.423H220.047Z" fill="white"/>
</svg>
